<svg width="22" height="22" viewBox="0 0 22 22" fill="none" xmlns="http://www.w3.org/2000/svg">
<path d="M2.45833 2.5H19.5417C20.3467 2.5 21 3.15333 21 3.95833V15.625C21 16.0118 20.8464 16.3827 20.5729 16.6562C20.2994 16.9297 19.9284 17.0833 19.5417 17.0833H2.45833C2.07156 17.0833 1.70063 16.9297 1.42714 16.6562C1.15365 16.3827 1 16.0118 1 15.625V3.95833C1 3.15333 1.65333 2.5 2.45833 2.5ZM2.25 6.17667V15.625C2.25 15.74 2.34333 15.8333 2.45833 15.8333H19.5417C19.5969 15.8333 19.6499 15.8114 19.689 15.7723C19.7281 15.7332 19.75 15.6803 19.75 15.625V6.17667L11.8167 11.5375C11.3233 11.8708 10.6767 11.8708 10.1833 11.5375L2.25 6.17667ZM2.25 3.95833V4.66833L10.8833 10.5017C10.9178 10.525 10.9584 10.5374 11 10.5374C11.0416 10.5374 11.0822 10.525 11.1167 10.5017L19.75 4.66833V3.95833C19.75 3.90308 19.7281 3.85009 19.689 3.81102C19.6499 3.77195 19.5969 3.75 19.5417 3.75H2.45833C2.40308 3.75 2.35009 3.77195 2.31102 3.81102C2.27195 3.85009 2.25 3.90308 2.25 3.95833Z" fill="#243E22"/>
<mask id="mask0_10_51" style="mask-type:alpha" maskUnits="userSpaceOnUse" x="0" y="0" width="22" height="22">
<rect width="22" height="22" fill="#D9D9D9"/>
</mask>
<g mask="url(#mask0_10_51)">
</g>
</svg>
